<?xml version="1.0" encoding="UTF-8"?>
<svg version="1.1" xmlns="http://www.w3.org/2000/svg" width="170" height="189">
<path d="M0 0 C56.1 0 112.2 0 170 0 C170 62.37 170 124.74 170 189 C113.9 189 57.8 189 0 189 C0 126.63 0 64.26 0 0 Z " fill="#FDFDFD" transform="translate(0,0)"/>
<path d="M0 0 C1.85063083 2.77594624 2.45480294 4.35999109 3.25 7.5 C6.94363321 20.15069373 13.7877482 29.10062512 25.15625 35.64453125 C30.23183026 38.06379822 35.57920778 39.55558828 41 41 C40.505 41.99 40.505 41.99 40 43 C38.02006933 43.64819159 36.01437575 44.21842862 34 44.75 C27.78684752 46.57579481 23.0776654 49.0330739 18 53 C17.1646875 53.62390625 16.329375 54.2478125 15.46875 54.890625 C6.764177 62.32807661 3.89188067 73.3786687 1 84 C0.01 83.505 0.01 83.505 -1 83 C-1.2475 81.741875 -1.495 80.48375 -1.75 79.1875 C-4.13480191 67.64872769 -10.87528096 57.0975424 -20.5 50.25 C-26.74560879 46.63610943 -34.10511046 44.96638233 -41 43 C-41 42.34 -41 41.68 -41 41 C-40.41734375 40.85304687 -39.8346875 40.70609375 -39.234375 40.5546875 C-27.07284818 37.22747733 -15.68978833 32.17174822 -8.8125 21.25 C-5.00353521 14.50559301 -2.32847185 7.37349418 0 0 Z " fill="#262223" transform="translate(101,26)"/>
<path d="M0 0 C1.35106087 0.0001133 1.35106087 0.0001133 2.72941589 0.00022888 C3.69825211 0.00539017 4.66708832 0.01055145 5.6652832 0.01586914 C7.15714897 0.01799156 7.15714897 0.01799156 8.67915344 0.02015686 C11.85815428 0.02575779 15.03708488 0.03831043 18.21606445 0.05102539 C20.37036031 0.05604027 22.52465727 0.0606032 24.67895508 0.06469727 C29.9621822 0.07572751 35.24536831 0.09246653 40.52856445 0.11352539 C40.52856445 2.09352539 40.52856445 4.07352539 40.52856445 6.11352539 C38.61394409 6.13539917 38.61394409 6.13539917 36.66064453 6.15771484 C31.91736066 6.21576079 27.17454838 6.29299368 22.43164062 6.37597656 C20.38028629 6.40919622 18.3288412 6.43723736 16.27734375 6.45996094 C13.32553496 6.49356109 10.37455559 6.54588015 7.4230957 6.60180664 C6.50832962 6.60819656 5.59356354 6.61458649 4.65107727 6.62117004 C-1.92834899 6.76868468 -1.92834899 6.76868468 -7.47143555 10.11352539 C-9.61135711 14.26588069 -9.72976496 17.85740374 -9.74609375 22.48657227 C-9.75120468 23.21078873 -9.75631561 23.93500519 -9.76158142 24.6811676 C-9.77543341 27.06495524 -9.77452426 29.4484524 -9.7722168 31.83227539 C-9.77610563 33.49467068 -9.78044069 35.15706499 -9.78520203 36.81945801 C-9.79265439 40.29951198 -9.79237973 43.77946447 -9.78710938 47.25952148 C-9.78131044 51.71503298 -9.79826054 56.17012935 -9.82145405 60.6255722 C-9.83619665 64.05713318 -9.83706248 67.48859424 -9.83394432 70.92018127 C-9.83445708 72.56279829 -9.83968643 74.20542097 -9.84975624 75.8480072 C-9.86211633 78.14577121 -9.85533262 80.44272709 -9.84375 82.74047852 C-9.84437943 84.04666138 -9.84500885 85.35284424 -9.84565735 86.6986084 C-9.44405218 90.36340911 -8.70263534 92.21204713 -6.47143555 95.11352539 C-2.87776443 97.50930614 -0.29170207 97.40284203 3.8581543 97.38818359 C4.60158585 97.39329453 5.3450174 97.39840546 6.11097717 97.40367126 C8.57056716 97.41758023 11.02987729 97.41660933 13.48950195 97.41430664 C15.19959619 97.41819331 16.90968947 97.42252791 18.61978149 97.42729187 C22.20594408 97.4347572 25.79200824 97.43446087 29.37817383 97.42919922 C33.97050079 97.42340891 38.56242387 97.44032331 43.15468407 97.46354389 C46.68747305 97.47828825 50.22016498 97.4791519 53.75297928 97.47603416 C55.44583561 97.47654718 57.1386974 97.48178127 58.8315239 97.49184608 C61.20134312 97.50420483 63.57037854 97.49742232 65.94018555 97.48583984 C66.98616158 97.49730545 66.98616158 97.49730545 68.05326843 97.50900269 C72.37353945 97.46241222 75.13904346 96.8348334 78.52856445 94.11352539 C80.48857885 91.23970143 80.7907785 88.87254013 80.84741211 85.43676758 C80.8672818 84.51611511 80.88715149 83.59546265 80.90762329 82.64691162 C80.9191745 81.66136292 80.93072571 80.67581421 80.94262695 79.66040039 C80.9619931 78.64504211 80.98135925 77.62968384 81.00131226 76.58355713 C81.06104544 73.34363174 81.10746873 70.10367071 81.15356445 66.86352539 C81.19174996 64.66559331 81.23080203 62.46767611 81.27075195 60.26977539 C81.3667418 54.88449083 81.45180769 49.49911656 81.52856445 44.11352539 C83.18471103 43.73133772 84.8531347 43.39957437 86.52856445 43.11352539 C88.09931035 44.68427129 87.67134193 46.24859818 87.68969727 48.43041992 C87.69930481 49.34872589 87.70891235 50.26703186 87.71881104 51.21316528 C87.72306091 52.21411224 87.72731079 53.2150592 87.73168945 54.24633789 C87.73738953 55.27153534 87.7430896 56.29673279 87.7489624 57.35299683 C87.75843219 59.53032392 87.76495419 61.70766547 87.76879883 63.88500977 C87.77846283 67.20362805 87.80945055 70.52161624 87.84106445 73.84008789 C87.84759842 75.95466754 87.85284734 78.06925163 87.85668945 80.18383789 C87.86903625 81.17263947 87.88138306 82.16144104 87.894104 83.1802063 C87.87372682 89.54383558 87.34005077 94.75664146 83.09887695 99.82055664 C77.43684021 104.15124961 73.07266249 105.41332483 66.01953125 105.40405273 C65.28062653 105.41076996 64.5417218 105.41748718 63.78042603 105.42440796 C61.34614266 105.44335094 58.91213562 105.4473104 56.4777832 105.44946289 C54.77773426 105.45589395 53.07768642 105.46262254 51.37763977 105.46963501 C47.81602413 105.48159892 44.25450541 105.4853168 40.69287109 105.48413086 C36.14339426 105.48392785 31.59454333 105.51121519 27.04521465 105.54567528 C23.53374921 105.56798502 20.02243335 105.57196714 16.51090431 105.57091141 C14.83446918 105.5732618 13.15802957 105.58205354 11.48166466 105.59757614 C-4.91632781 105.73518735 -4.91632781 105.73518735 -11.47143555 101.11352539 C-16.16854297 95.3324701 -16.62126194 90.73344342 -16.63256836 83.50268555 C-16.63753326 82.74120712 -16.64249817 81.9797287 -16.64761353 81.19517517 C-16.66219523 78.68097015 -16.66903008 76.16682821 -16.67456055 73.65258789 C-16.6803148 71.90147907 -16.6860725 70.15037027 -16.6918335 68.39926147 C-16.70233178 64.72914334 -16.70818228 61.05904704 -16.71166992 57.38891602 C-16.71715557 52.69249307 -16.74118998 47.99635991 -16.76964188 43.30002785 C-16.78828917 39.68314781 -16.79347494 36.06633734 -16.7950058 32.4494133 C-16.79802757 30.71830026 -16.80604004 28.98718831 -16.81919098 27.25612259 C-16.83629726 24.83157691 -16.83436041 22.40773629 -16.82788086 19.9831543 C-16.83709564 19.27230179 -16.84631042 18.56144928 -16.85580444 17.82905579 C-16.81148251 12.51927991 -15.58660353 8.43249863 -11.97143555 4.46899414 C-7.88581532 1.28774297 -5.13426572 -0.0143817 0 0 Z " fill="#2D2A2B" transform="translate(38.471435546875,44.886474609375)"/>
<path d="M0 0 C2.19121252 2.19121252 2.98527341 4.00059122 4.25 6.8125 C8.04954992 14.51129649 13.36614055 17.44630681 21 21 C20.43152344 21.27585937 19.86304688 21.55171875 19.27734375 21.8359375 C9.93586352 26.61082791 4.44793327 31.96964866 1 42 C-0.56079093 39.65881361 -1.58327699 37.7207175 -2.6875 35.1875 C-5.71824299 29.10364692 -10.12289858 25.52790142 -16.4375 23.125 C-17.613125 22.75375 -18.78875 22.3825 -20 22 C-18.62541393 19.25082786 -17.03486983 18.98588898 -14.25 17.75 C-6.22280603 13.81644626 -3.18960083 8.01854958 0 0 Z " fill="#272324" transform="translate(63,88)"/>
<path d="M0 0 C1.67542976 0.28604898 3.34385343 0.61781233 5 1 C5.07629277 7.56527228 5.1287016 14.13042948 5.16479492 20.69604492 C5.17984741 22.92785922 5.20029398 25.1596441 5.22631836 27.39135742 C5.26285688 30.60603104 5.27976215 33.82031228 5.29296875 37.03515625 C5.30845261 38.02709488 5.32393646 39.01903351 5.33988953 40.04103088 C5.34128161 45.81871826 4.82573739 49.91768736 2 55 C-0.6875 57.4375 -0.6875 57.4375 -3 59 C-3.33 57.68 -3.66 56.36 -4 55 C-4.66 55 -5.32 55 -6 55 C-6.66 55.66 -7.32 56.32 -8 57 C-8.495 55.515 -8.495 55.515 -9 54 C-8.21625 53.5875 -7.4325 53.175 -6.625 52.75 C-3.81101371 50.87400914 -3.19973035 50.062123 -2 47 C-1.68362271 44.74847606 -1.68362271 44.74847606 -1.69702148 42.33911133 C-1.67205849 40.96297417 -1.67205849 40.96297417 -1.64659119 39.55903625 C-1.63817703 38.5766246 -1.62976288 37.59421295 -1.62109375 36.58203125 C-1.60409927 35.56904465 -1.5871048 34.55605804 -1.56959534 33.51237488 C-1.51648483 30.27914642 -1.47616189 27.04593102 -1.4375 23.8125 C-1.39362546 20.56842138 -1.34699792 17.32444403 -1.29469299 14.08049011 C-1.26264165 12.06177875 -1.23578135 10.04297737 -1.21446228 8.02412415 C-1.20097244 7.11615585 -1.1874826 6.20818756 -1.17358398 5.27270508 C-1.16407211 4.46980545 -1.15456024 3.66690582 -1.14476013 2.8396759 C-1 1 -1 1 0 0 Z " fill="#252122" transform="translate(121,88)"/>
<path d="M0 0 C0.598125 0.20625 1.19625 0.4125 1.8125 0.625 C-1.72625407 4.04547794 -5.03575924 4.03702358 -9.70996094 3.96557617 C-10.46156998 3.96601425 -11.21317902 3.96645233 -11.98756409 3.96690369 C-14.46593418 3.96481766 -16.94362343 3.94149603 -19.421875 3.91796875 C-21.14251333 3.91237212 -22.86315645 3.90810234 -24.58380127 3.90510559 C-29.10814661 3.89366208 -33.63220212 3.8641992 -38.15643311 3.83099365 C-42.77482177 3.8002821 -47.39325736 3.78659794 -52.01171875 3.77148438 C-61.0704397 3.73932899 -70.12894573 3.68813862 -79.1875 3.625 C-79.1875 3.295 -79.1875 2.965 -79.1875 2.625 C-78.2670842 2.61691315 -77.3466684 2.60882629 -76.39836121 2.60049438 C-67.73136501 2.52260758 -59.06452541 2.43533487 -50.39773083 2.33747292 C-45.94186209 2.28749138 -41.48601728 2.24116156 -37.0300293 2.203125 C-32.7310965 2.16629558 -28.43236296 2.11994213 -24.13360023 2.06693649 C-22.49216514 2.04838005 -20.85068731 2.03327671 -19.20918846 2.02165604 C-16.91293231 2.00481479 -14.61713373 1.97578558 -12.32104492 1.94384766 C-11.01310471 1.93052399 -9.70516449 1.91720032 -8.35758972 1.9034729 C-4.89671178 1.59945604 -3.2883207 -0.56371212 0 0 Z " fill="#E7E7E7" transform="translate(114.1875,139.375)"/>
<path d="M0 0 C0.763125 0.78375 1.52625 1.5675 2.3125 2.375 C4.90891805 5.07257717 4.90891805 5.07257717 8 7 C4.25 10 4.25 10 2 10 C1.34 11.32 0.68 12.64 0 14 C-0.61875 13.195625 -1.2375 12.39125 -1.875 11.5625 C-3.74164041 8.96125481 -3.74164041 8.96125481 -6 8 C-6 6 -6 6 -3.5625 3.4375 C-2.716875 2.633125 -1.87125 1.82875 -1 1 C-0.67 0.67 -0.34 0.34 0 0 Z " fill="#343232" transform="translate(128,34)"/>
<path d="M0 0 C1.33566756 3.03560809 0.91578966 4.26198771 -0.125 7.5 C-2.03720283 11.06944529 -3.68158347 12.75782667 -7 15 C-7.33 13.68 -7.66 12.36 -8 11 C-8.66 11 -9.32 11 -10 11 C-10.66 11.66 -11.32 12.32 -12 13 C-12.33 12.01 -12.66 11.02 -13 10 C-9.33708062 7.52214277 -6.3890815 6.51035831 -2 6 C-1.34 4.02 -0.68 2.04 0 0 Z " fill="#312C2D" transform="translate(125,132)"/>
<path d="M0 0 C1.98 1.32 3.96 2.64 6 4 C5.01 4.66 4.02 5.32 3 6 C3 7.32 3 8.64 3 10 C-1.70552147 8.55214724 -1.70552147 8.55214724 -3 6.125 C-3 3.25529451 -1.87086204 2.09536549 0 0 Z " fill="#332F30" transform="translate(29,138)"/>
<path d="M0 0 C-0.33 0.99 -0.66 1.98 -1 3 C-1 3.66 -1 4.32 -1 5 C-3.64 4.67 -6.28 4.34 -9 4 C-9 3.34 -9 2.68 -9 2 C-2.25 0 -2.25 0 0 0 Z " fill="#403F3F" transform="translate(69,65)"/>
<path d="M0 0 C-0.33 1.65 -0.66 3.3 -1 5 C-3.31 4.34 -5.62 3.68 -8 3 C-7 1 -7 1 -4.5625 -0.1875 C-2 -1 -2 -1 0 0 Z " fill="#403F3F" transform="translate(51,107)"/>
<path d="M0 0 C2.3125 0.1875 2.3125 0.1875 5 1 C6.875 3.4375 6.875 3.4375 8 6 C7.67 6.66 7.34 7.32 7 8 C5.83035398 6.8572081 4.66435444 5.71068285 3.5 4.5625 C2.8503125 3.92441406 2.200625 3.28632812 1.53125 2.62890625 C0 1 0 1 0 0 Z " fill="#E8E8E8" transform="translate(111,49)"/>
<path d="M0 0 C2 3 2 3 1.625 5.6875 C1.41875 6.450625 1.2125 7.21375 1 8 C0.01 8 -0.98 8 -2 8 C-1.34 5.36 -0.68 2.72 0 0 Z " fill="#3C3A3B" transform="translate(101,26)"/>
<path d="M0 0 C0.66 0.33 1.32 0.66 2 1 C0.515 4.465 0.515 4.465 -1 8 C-3 5 -3 5 -2.75 2.875 C-2 1 -2 1 0 0 Z " fill="#333233" transform="translate(65,122)"/>
<path d="M0 0 C1.32 0.99 2.64 1.98 4 3 C3.34 4.32 2.68 5.64 2 7 C1.34 6.67 0.68 6.34 0 6 C0 4.02 0 2.04 0 0 Z " fill="#EEEBEC" transform="translate(55,116)"/>
<path d="M0 0 C1.98 0.66 3.96 1.32 6 2 C3.66785852 3.20628008 1.50357861 4.1654738 -1 5 C-0.67 3.35 -0.34 1.7 0 0 Z " fill="#363435" transform="translate(78,107)"/>
<path d="M0 0 C0.66 0.33 1.32 0.66 2 1 C0.54744301 4.82946843 -1.42895561 6.12050295 -5 8 C-3.62845496 5.04590299 -2.01136276 2.55991624 0 0 Z " fill="#D9D9D9" transform="translate(115,81)"/>
</svg>
