<?xml version="1.0" encoding="UTF-8"?>
<svg version="1.1" xmlns="http://www.w3.org/2000/svg" width="96" height="96">
<path d="M0 0 C4.24768641 0.91678398 7.00344614 3.97215104 10.05249023 6.9074707 C11.36128943 8.11569097 12.67113542 9.32277858 13.98217773 10.52856445 C14.5492041 11.06795654 15.11623047 11.60734863 15.70043945 12.16308594 C17.16259986 13.56992515 17.16259986 13.56992515 19.17749023 14.4699707 C19.15686523 13.5005957 19.13624023 12.5312207 19.11499023 11.5324707 C19.17749023 8.4699707 19.17749023 8.4699707 20.17749023 7.4699707 C23.67749023 7.3449707 23.67749023 7.3449707 27.17749023 7.4699707 C29.27235676 9.56483723 28.42576083 14.87366614 28.43139648 17.83520508 C28.46795486 20.12151204 28.46795486 20.12151204 29.17749023 23.4699707 C31.60260999 25.79320865 31.60260999 25.79320865 34.17749023 27.4699707 C34.48999023 30.2199707 34.48999023 30.2199707 34.17749023 32.4699707 C32.52749023 32.7999707 30.87749023 33.1299707 29.17749023 33.4699707 C29.16290771 34.36304932 29.1483252 35.25612793 29.13330078 36.17626953 C29.07221946 39.49214348 28.99806545 42.8071897 28.91503906 46.12255859 C28.88180023 47.55701698 28.85376489 48.99160583 28.83105469 50.42626953 C28.79748752 52.48957877 28.7451761 54.55169373 28.68920898 56.61450195 C28.6630249 57.85562744 28.63684082 59.09675293 28.60986328 60.37548828 C28.17749023 63.4699707 28.17749023 63.4699707 26.9465332 65.37573242 C24.62962176 66.80885374 23.07854702 66.84276706 20.36108398 66.83325195 C19.43231445 66.83260742 18.50354492 66.83196289 17.54663086 66.83129883 C16.57918945 66.81518555 15.61174805 66.79907227 14.61499023 66.7824707 C13.64368164 66.78569336 12.67237305 66.78891602 11.67163086 66.79223633 C4.44451032 66.73699079 4.44451032 66.73699079 2.17749023 64.4699707 C1.85864258 62.59057617 1.85864258 62.59057617 1.76342773 60.3371582 C1.70541992 59.12866211 1.70541992 59.12866211 1.64624023 57.89575195 C1.61530273 57.05399414 1.58436523 56.21223633 1.55249023 55.3449707 C1.49448242 54.07073242 1.49448242 54.07073242 1.43530273 52.77075195 C1.34092529 50.67085387 1.25811438 48.5704418 1.17749023 46.4699707 C-0.80250977 46.4699707 -2.78250977 46.4699707 -4.82250977 46.4699707 C-4.87149414 47.74614258 -4.92047852 49.02231445 -4.97094727 50.3371582 C-5.04597168 52.00645142 -5.12151965 53.67572117 -5.19750977 55.3449707 C-5.24391602 56.60760742 -5.24391602 56.60760742 -5.29125977 57.89575195 C-5.32993164 58.70141602 -5.36860352 59.50708008 -5.40844727 60.3371582 C-5.43986816 61.08078613 -5.47128906 61.82441406 -5.50366211 62.59057617 C-5.82250977 64.4699707 -5.82250977 64.4699707 -7.82250977 66.4699707 C-11.2819431 66.92088746 -14.77455411 66.79403492 -18.26000977 66.7824707 C-19.22745117 66.79858398 -20.19489258 66.81469727 -21.19165039 66.83129883 C-22.12041992 66.83194336 -23.04918945 66.83258789 -24.00610352 66.83325195 C-24.85744873 66.83623291 -25.70879395 66.83921387 -26.5859375 66.84228516 C-28.82250977 66.4699707 -28.82250977 66.4699707 -30.59155273 65.37573242 C-32.44986894 62.49869627 -32.26252894 60.01306189 -32.33422852 56.61450195 C-32.35217972 55.95286545 -32.37013092 55.29122894 -32.3886261 54.60954285 C-32.44271875 52.50058324 -32.47661907 50.39184972 -32.51000977 48.2824707 C-32.54318404 46.85079862 -32.57767381 45.41915637 -32.61352539 43.98754883 C-32.69844234 40.4819068 -32.76525898 36.97618597 -32.82250977 33.4699707 C-34.47250977 33.1399707 -36.12250977 32.8099707 -37.82250977 32.4699707 C-38.24829102 30.3605957 -38.24829102 30.3605957 -37.82250977 27.4699707 C-35.83088256 25.06134408 -33.43539832 23.17818925 -31.01000977 21.2199707 C-30.32946533 20.65149414 -29.6489209 20.08301758 -28.94775391 19.49731445 C-26.9175356 17.80693652 -24.8720293 16.13685898 -22.82250977 14.4699707 C-21.74364132 13.58024643 -20.66544314 12.68970833 -19.58813477 11.7980957 C-17.77224435 10.30324669 -15.94740412 8.81916706 -14.11157227 7.34887695 C-11.86972444 5.55879101 -11.86972444 5.55879101 -10.09594727 3.80981445 C-6.9014858 0.7434731 -4.42978566 -0.110732 0 0 Z M-6.01782227 10.1027832 C-6.65204102 10.66223633 -7.28625977 11.22168945 -7.93969727 11.7980957 C-8.60227539 12.39106445 -9.26485352 12.9840332 -9.94750977 13.5949707 C-11.23933738 14.74615579 -12.53361467 15.89459778 -13.83032227 17.0402832 C-14.47735107 17.62672607 -15.12437988 18.21316895 -15.79101562 18.81738281 C-17.82250977 20.4699707 -17.82250977 20.4699707 -20.07470703 21.68701172 C-22.5773009 23.0905667 -24.09600124 24.16144421 -25.82250977 26.4699707 C-26.74747147 31.00948015 -26.76630457 35.40032725 -26.59082031 40.00244141 C-26.50980479 42.16293686 -26.48833862 44.31785792 -26.47680664 46.47973633 C-26.76477042 53.29304579 -26.76477042 53.29304579 -24.42578125 59.37841797 C-22.26265729 60.85113416 -20.79139298 60.80446201 -18.19750977 60.7199707 C-17.40086914 60.70450195 -16.60422852 60.6890332 -15.78344727 60.6730957 C-13.8203972 60.67802051 -13.8203972 60.67802051 -12.82250977 59.4699707 C-12.67864873 58.14110997 -12.59574689 56.80548483 -12.54125977 55.4699707 C-12.50387695 54.6655957 -12.46649414 53.8612207 -12.42797852 53.0324707 C-12.39317383 52.1868457 -12.35836914 51.3412207 -12.32250977 50.4699707 C-12.25390467 48.80312099 -12.18120753 47.13643296 -12.10375977 45.4699707 C-12.05832031 44.3562207 -12.05832031 44.3562207 -12.01196289 43.2199707 C-11.82250977 41.4699707 -11.82250977 41.4699707 -10.82250977 40.4699707 C-9.49207352 40.3715986 -8.15657632 40.33918478 -6.82250977 40.3371582 C-6.01813477 40.33586914 -5.21375977 40.33458008 -4.38500977 40.33325195 C-3.53938477 40.33711914 -2.69375977 40.34098633 -1.82250977 40.3449707 C-0.55407227 40.33916992 -0.55407227 40.33916992 0.73999023 40.33325195 C1.54436523 40.33454102 2.34874023 40.33583008 3.17749023 40.3371582 C3.91999023 40.33828613 4.66249023 40.33941406 5.42749023 40.34057617 C7.17749023 40.4699707 7.17749023 40.4699707 8.17749023 41.4699707 C8.32135127 42.79883143 8.40425311 44.13445657 8.45874023 45.4699707 C8.51481445 46.6765332 8.51481445 46.6765332 8.57202148 47.9074707 C8.64233398 49.61580404 8.71264648 51.32413737 8.78295898 53.0324707 C8.8390332 54.2390332 8.8390332 54.2390332 8.89624023 55.4699707 C8.9265332 56.2124707 8.95682617 56.9549707 8.98803711 57.7199707 C8.99541436 59.49685925 8.99541436 59.49685925 10.17749023 60.4699707 C12.21019585 60.70817992 12.21019585 60.70817992 14.55249023 60.7199707 C15.34397461 60.74575195 16.13545898 60.7715332 16.95092773 60.7980957 C19.18795523 60.63544476 19.18795523 60.63544476 20.77416992 59.37182617 C23.76578088 55.31743345 22.93967442 49.39002394 23.00805664 44.4934082 C23.052005 42.36843259 23.17058386 40.25586403 23.29077148 38.1340332 C23.46054388 32.61657258 23.51000606 28.10839872 19.89746094 23.66650391 C17.09404895 21.3753663 14.2323869 19.40863487 11.17749023 17.4699707 C9.94704721 16.47298093 8.73304705 15.45476657 7.54858398 14.40356445 C6.58049805 13.57985352 5.61241211 12.75614258 4.61499023 11.9074707 C3.62370117 11.06055664 2.63241211 10.21364258 1.61108398 9.34106445 C-1.99480028 6.56864301 -2.88478453 7.30450596 -6.01782227 10.1027832 Z " fill="#000000" transform="translate(49.822509765625,11.530029296875)"/>
</svg>
