<?xml version="1.0" encoding="UTF-8"?>
<svg version="1.1" xmlns="http://www.w3.org/2000/svg" width="512" height="512">
<path d="M0 0 C0.71478516 -0.020625 1.42957031 -0.04125 2.16601562 -0.0625 C6.66698395 -0.09580966 9.59981453 0.30145209 13.0625 3.25 C16.24088929 8.29813467 16.48508237 12.32893657 16.42326355 18.09579468 C16.42582682 18.97480143 16.4283901 19.85380819 16.43103105 20.75945151 C16.43596383 23.69838344 16.41948426 26.63679916 16.40307617 29.57568359 C16.40222979 31.68491605 16.40270526 33.7941494 16.40440369 35.90338135 C16.40526463 41.62606149 16.38762262 47.34855309 16.36668181 53.0711894 C16.34793167 59.05295322 16.34616588 65.03472134 16.34260559 71.01651001 C16.33328026 82.34237823 16.30865979 93.66815961 16.27855712 104.99398959 C16.24502838 117.88867166 16.22853093 130.78335788 16.21347082 143.67807269 C16.18211073 170.20209661 16.12934065 196.72604344 16.0625 223.25 C17.15986795 223.24723462 18.25723591 223.24446924 19.38785744 223.24162006 C46.07789759 223.17504859 72.76792699 223.12573563 99.45803261 223.09456348 C112.36511814 223.07908855 125.27214886 223.057987 138.17919922 223.02368164 C149.42777206 222.99379854 160.6763052 222.97442955 171.92491663 222.96773452 C177.88205845 222.96382043 183.83908671 222.95460863 189.79619217 222.93280983 C195.40215213 222.91246199 201.00795163 222.90616281 206.61394501 222.91067696 C208.67228187 222.909851 210.73062404 222.9038753 212.78892899 222.89238358 C215.59838529 222.87746626 218.40723509 222.88104374 221.21670532 222.88923645 C222.03189121 222.88049793 222.8470771 222.8717594 223.68696558 222.86275607 C228.54457943 222.90106543 231.84211275 223.58663941 236.0625 226.25 C241.96670041 233.38735619 239.32725839 245.66220295 238.55859375 254.33984375 C234.56324435 294.53050456 221.89445997 334.24530723 198.0625 367.25 C197.42538086 368.1476709 197.42538086 368.1476709 196.77539062 369.06347656 C189.77475779 378.89299699 182.16743823 387.87271967 173.75 396.515625 C172.15447277 398.15547243 170.57625075 399.81040286 169 401.46875 C161.91355006 408.83650129 154.2464074 415.14229994 146.0625 421.25 C145.51932129 421.66459473 144.97614258 422.07918945 144.41650391 422.50634766 C116.39325589 443.87312153 83.45094413 457.30711981 49.0625 464.25 C48.28084473 464.41516113 47.49918945 464.58032227 46.69384766 464.75048828 C18.22689873 470.51783368 -14.65642477 469.40152009 -42.9375 463.25 C-44.41887451 462.92854004 -44.41887451 462.92854004 -45.93017578 462.60058594 C-79.57791552 455.02529601 -110.84364637 440.63587885 -137.9375 419.25 C-138.8140625 418.56679688 -139.690625 417.88359375 -140.59375 417.1796875 C-157.02132809 404.08594143 -171.60861258 389.27366243 -183.9375 372.25 C-184.39350586 371.62335449 -184.84951172 370.99670898 -185.31933594 370.35107422 C-205.45582965 342.32997539 -218.13777906 310.94828369 -224.9375 277.25 C-225.11539063 276.41162598 -225.29328125 275.57325195 -225.4765625 274.70947266 C-231.27336945 246.34077357 -230.05851697 213.43276458 -223.9375 185.25 C-223.72319336 184.25709961 -223.50888672 183.26419922 -223.28808594 182.24121094 C-215.5428716 147.6188627 -199.95345815 115.96499288 -177.9375 88.25 C-177.50002441 87.69538086 -177.06254883 87.14076172 -176.61181641 86.56933594 C-164.81119949 71.73864837 -151.22765323 58.43683854 -135.9375 47.25 C-134.80966154 46.40395808 -133.68205819 45.55760264 -132.5546875 44.7109375 C-94.60956442 16.56423318 -47.31609608 0.35475986 0 0 Z M-136.9375 76.25 C-131.32246148 83.09743173 -125.05727223 89.27120885 -118.79760742 95.51928711 C-117.56662669 96.75162451 -116.33585844 97.98417419 -115.10528564 99.21691895 C-111.77949812 102.54724634 -108.45057839 105.87442595 -105.12093139 109.20089412 C-101.63521708 112.68407041 -98.15195025 116.16969289 -94.66828918 119.65492249 C-88.82533409 125.49969361 -82.98028048 131.34235991 -77.1340332 137.18383789 C-70.36670517 143.94570911 -63.60300776 150.71119591 -56.84115523 157.47854227 C-51.03483577 163.2893908 -45.22658109 169.09829957 -39.41668588 174.90557295 C-35.94652855 178.37416833 -32.4770575 181.84344288 -29.00932884 185.31446648 C-25.75547871 188.57119283 -22.49921597 191.82548701 -19.24102783 195.07787323 C-18.04243829 196.27513449 -16.84471005 197.47325868 -15.64788246 198.67228127 C-14.02183227 200.30103989 -12.39277272 201.92672536 -10.76286316 203.55162048 C-9.84978488 204.46432174 -8.9367066 205.37702299 -7.99595928 206.31738186 C-6.28658007 208.36407852 -6.28658007 208.36407852 -4.9375 208.25 C-4.9375 146.54 -4.9375 84.83 -4.9375 21.25 C-52.84612284 21.25 -102.37759089 43.90743019 -136.9375 76.25 Z M-152.9375 91.25 C-178.22794201 119.47851158 -194.74127132 153.68593891 -203.125 190.4375 C-203.28000977 191.11312988 -203.43501953 191.78875977 -203.59472656 192.48486328 C-206.54913878 206.05005665 -207.34247738 219.23007908 -207.3125 233.0625 C-207.31228851 233.96429993 -207.31207703 234.86609985 -207.31185913 235.79522705 C-207.27722116 250.63111238 -206.2527025 264.74156243 -202.9375 279.25 C-202.75558105 280.08499023 -202.57366211 280.91998047 -202.38623047 281.78027344 C-193.88641787 320.07880349 -173.91590222 354.14422043 -146.9375 382.25 C-146.45168457 382.76304687 -145.96586914 383.27609375 -145.46533203 383.8046875 C-137.88784913 391.78471627 -129.77194237 398.69681542 -120.9375 405.25 C-119.65939453 406.20326172 -119.65939453 406.20326172 -118.35546875 407.17578125 C-94.93452072 424.07149003 -68.14131883 436.10524673 -39.9375 442.25 C-39.07930664 442.44609863 -38.22111328 442.64219727 -37.33691406 442.84423828 C14.53995461 454.3006143 72.41395675 443.66851498 117.17089844 415.17480469 C127.30158451 408.57001927 137.02893019 401.53612905 145.8828125 393.27734375 C147.83102137 391.46530002 149.83048656 389.76343338 151.875 388.0625 C189.48913505 355.06498918 212.96507645 303.99370049 217.16015625 254.64453125 C217.24849731 253.63894165 217.33683838 252.63335205 217.42785645 251.59729004 C217.64253945 249.14844829 217.8540334 246.6993774 218.0625 244.25 C216.95335802 244.2531424 215.84421604 244.25628481 214.7014637 244.25952244 C187.70114847 244.33395831 160.7011669 244.35662612 133.7007618 244.32515812 C120.6434542 244.3111361 107.58655343 244.3138735 94.52929688 244.35620117 C83.14721829 244.39305576 71.76563585 244.39832632 60.38353622 244.36582941 C54.35779424 244.34972416 48.33298278 244.3493268 42.30731583 244.38676643 C36.63188898 244.42153052 30.95807015 244.41396177 25.28269005 244.37437057 C23.20346076 244.36724592 21.12411235 244.37539235 19.04501915 244.40022469 C1.39524063 244.59662517 1.39524063 244.59662517 -4.36305237 239.56469727 C-5.91876589 237.82020189 -7.4409245 236.04548614 -8.9375 234.25 C-10.52468933 232.63071841 -12.14802391 231.05363804 -13.77566433 229.47507423 C-15.61688924 227.68567701 -17.43369427 225.87435223 -19.24555969 224.05525208 C-19.88418253 223.41413294 -20.52280537 222.7730138 -21.18078041 222.11246681 C-21.84178938 221.44878782 -22.50279835 220.78510883 -23.18383789 220.10131836 C-24.59231548 218.69091805 -26.00102354 217.28074786 -27.40994263 215.87078857 C-30.42382246 212.85376659 -33.4361466 209.8352032 -36.44725227 206.81541252 C-41.20485739 202.04422159 -45.96633155 197.27690434 -50.7283783 192.51014709 C-60.82189478 182.40556767 -70.91114937 172.2967377 -81 162.1875 C-91.92402367 151.24145092 -102.84878636 140.29614526 -113.77840227 129.35567957 C-118.51711679 124.61197077 -123.2533802 119.86583204 -127.98780739 115.11784446 C-130.92095939 112.17726657 -133.8561517 109.23873195 -136.79191971 106.30076599 C-138.15822649 104.93257774 -139.52366397 103.56352078 -140.88819313 102.19355965 C-142.74175828 100.3328444 -144.59832143 98.47517461 -146.45570374 96.61827087 C-147.0023753 96.06800435 -147.54904687 95.51773782 -148.11228424 94.95079654 C-150.17523842 92.39583606 -150.17523842 92.39583606 -152.9375 91.25 Z " fill="#000000" transform="translate(227.9375,44.75)"/>
<path d="M0 0 C34.7414488 7.35532106 67.10216884 21.97952091 95 44 C95.8765625 44.68320312 96.753125 45.36640625 97.65625 46.0703125 C114.08382809 59.16405857 128.67111258 73.97633757 141 91 C141.45600586 91.62664551 141.91201172 92.25329102 142.38183594 92.89892578 C169.41358746 130.51517576 184.73438588 175.74284587 185.5 222.0625 C185.53077637 223.1755249 185.56155273 224.2885498 185.59326172 225.43530273 C185.59445947 233.19252589 185.59445947 233.19252589 182.65625 237.18359375 C178.47121586 240.04541857 175.37023802 240.12954377 170.40478516 240.14526367 C169.73938217 240.14862228 169.07397919 240.1519809 168.38841248 240.15544128 C166.18861016 240.16494032 163.98888405 240.16689392 161.7890625 240.16796875 C160.25833098 240.17118225 158.72759977 240.1745464 157.1968689 240.17805481 C153.98735848 240.18404359 150.77787498 240.18589499 147.56835938 240.18530273 C143.46039122 240.18520117 139.35259612 240.1988485 135.24466896 240.21607494 C132.08248099 240.22720675 128.92033468 240.22922157 125.75812912 240.22869301 C124.24390441 240.22987153 122.72967857 240.23428614 121.21547318 240.24202538 C119.09486104 240.25184844 116.97462236 240.24893819 114.85400391 240.24291992 C113.64837799 240.24434494 112.44275208 240.24576996 111.20059204 240.24723816 C106.68039255 239.89806345 103.98020932 238.92722503 100.6875 235.8125 C98.53111699 232.21852832 98.4833405 230.13327601 99 226 C100.65139305 222.4613006 101.71605229 221.18929847 105 219 C107.60063171 218.75949097 107.60063171 218.75949097 110.7565918 218.77294922 C112.52808846 218.77317581 112.52808846 218.77317581 114.33537292 218.77340698 C116.24797661 218.78889084 116.24797661 218.78889084 118.19921875 218.8046875 C120.15720146 218.80893234 120.15720146 218.80893234 122.15473938 218.81326294 C125.62195515 218.82089253 129.08900288 218.84053507 132.55615234 218.8626709 C136.09535448 218.88314395 139.63458382 218.89226777 143.17382812 218.90234375 C150.11595437 218.9237817 157.05796911 218.95790944 164 219 C163.54271706 215.20381316 163.07856554 211.40849503 162.61328125 207.61328125 C162.48538208 206.55081177 162.35748291 205.48834229 162.22570801 204.39367676 C156.64924702 159.13154627 137.03611119 116.54319103 105.45947266 83.52685547 C104.47491573 82.49684225 103.4955186 81.46187541 102.52099609 80.42236328 C78.97897306 55.3723103 47.78886448 37.0348889 15 27 C14.27506348 26.77618652 13.55012695 26.55237305 12.80322266 26.32177734 C-3.97508224 21.21881576 -20.45936854 18.94895905 -38 17 C-38 83.66 -38 150.32 -38 219 C-18.53 219 0.94 219 21 219 C26.86956522 224.86956522 26.86956522 224.86956522 27.375 229.25 C26.876181 234.23819002 25.58893653 235.57419694 22 239 C18.54396862 240.28471877 15.05287104 240.14000796 11.39892578 240.16113281 C10.74473663 240.16609772 10.09054749 240.17106262 9.41653442 240.17617798 C7.25944962 240.19074348 5.10243833 240.19759183 2.9453125 240.203125 C1.44082641 240.20888064 -0.06365968 240.21463832 -1.56814575 240.22039795 C-4.72040141 240.23089167 -7.87263169 240.23674512 -11.02490234 240.24023438 C-15.05547058 240.24571869 -19.08570094 240.26975199 -23.11616325 240.29820633 C-26.22349008 240.31686868 -29.33073604 240.32204019 -32.43811417 240.32357025 C-33.92361424 240.3265887 -35.40911316 240.33458991 -36.89455795 240.34775543 C-38.97667625 240.36489366 -41.05797567 240.36291749 -43.14013672 240.35644531 C-44.91407303 240.36191376 -44.91407303 240.36191376 -46.72384644 240.36749268 C-50.5332393 239.94018548 -52.81536473 239.1387317 -56 237 C-59.31944738 231.89661484 -59.42658651 227.57703555 -59.38095093 221.7010498 C-59.3856309 220.77319026 -59.39031087 219.84533072 -59.39513266 218.88935423 C-59.40708463 215.78481408 -59.39762449 212.68071519 -59.38818359 209.57617188 C-59.3922492 207.34859459 -59.39759101 205.12101932 -59.40411377 202.89344788 C-59.41779444 196.84602225 -59.41248553 190.79875011 -59.40297651 184.75132179 C-59.39538387 178.42401336 -59.40242443 172.09671812 -59.40713501 165.76940918 C-59.4129434 154.46289511 -59.40361749 143.15645899 -59.388357 131.84996051 C-59.3749541 121.60257579 -59.37728228 111.35529303 -59.39111328 101.10791016 C-59.40717499 89.20225426 -59.41314007 77.29666028 -59.40427649 65.39098978 C-59.3995982 59.09078937 -59.39897948 52.79065916 -59.40888596 46.49046326 C-59.41754852 40.56757551 -59.41154649 34.6448804 -59.39420319 28.72201347 C-59.39023458 26.54757952 -59.39137876 24.37312938 -59.39799118 22.19870186 C-59.40618176 19.23189868 -59.3959148 16.26571391 -59.38095093 13.2989502 C-59.38764309 12.4372747 -59.39433526 11.5755992 -59.40123022 10.68781233 C-59.3527073 5.73223445 -58.79307693 2.27066959 -56 -2 C-43.15529037 -10.56313975 -14.27436328 -2.84103504 0 0 Z " fill="#000000" transform="translate(327,4)"/>
<path d="M0 0 C2.84282186 2.32594515 4.66477506 3.97507781 5.81640625 7.49609375 C7.36897819 10.78057762 8.92123298 11.32128016 12.1875 12.8125 C19.89006964 16.78476759 24.22235995 21.42865884 27.4375 29.5 C29.40919036 35.67113478 30.25517848 40.28881449 27.4375 46.375 C24.3571879 49.69225918 22.48587477 50.46777757 18 51 C14.05687376 49.8827809 11.77327204 48.95992391 9.1875 45.75 C7.80802389 42.55542375 6.87277114 39.36640299 6 36 C5.33059363 32.90130873 5.33059363 32.90130873 3 31.8125 C-2.04544128 30.44602632 -6.85592014 30.49819407 -11.9375 31.6875 C-14.73797027 33.46961745 -15.26843501 34.78111403 -16 38 C-15.85888461 41.45732716 -15.41464021 43.4029181 -13.4375 46.25 C-9.55004928 49.04099026 -5.23926019 49.63776673 -0.609375 50.38671875 C9.19737178 52.06743479 17.90071897 55.85681097 24 64 C28.42654487 71.85441803 30.72537074 80.63091715 28.31640625 89.5234375 C24.78888386 99.03750205 20.05927083 104.89203405 11.26953125 109.96875 C9 111 9 111 6 111 C5.9071875 112.36125 5.9071875 112.36125 5.8125 113.75 C5 117 5 117 2.8125 119.3125 C-0.35544289 121.21326574 -2.30519651 121.92459585 -6 122 C-9.67627804 120.7024901 -11.52982921 119.62689438 -13.875 116.5 C-15 114 -15 114 -15 111 C-15.73476563 110.88527344 -16.46953125 110.77054687 -17.2265625 110.65234375 C-25.16338248 108.78551426 -30.34381169 103.07911453 -34.625 96.44921875 C-37.84650877 90.71090625 -38.51896505 85.43516667 -38 79 C-36.5987455 75.49686374 -35.37068221 74.25273787 -32.25 72.125 C-28.2771799 70.74979304 -26.03695972 70.8786223 -22 72 C-17.0855898 75.13976207 -16.39410333 80.6810962 -15 86 C-14.67 86.99 -14.34 87.98 -14 89 C-8.56178573 91.21967929 -4.73556766 91.03428269 1 90 C1.78375 89.9175 2.5675 89.835 3.375 89.75 C5.22121338 89.07933898 5.22121338 89.07933898 6.3125 86.875 C7.2030479 83.15089059 7.00792658 80.69573078 6 77 C1.95552883 72.79282022 -1.79233364 72.20698667 -7.3125 71.5 C-13.45168933 70.55121029 -18.84305163 69.68353455 -24 66 C-24.68320312 65.51789063 -25.36640625 65.03578125 -26.0703125 64.5390625 C-32.40085347 59.56339746 -36.43676511 52.94123322 -38 45 C-39.01494861 35.66580048 -36.80680182 27.09467177 -30.9375 19.6875 C-27.3163437 15.82283861 -23.0748254 13.84866793 -18.38671875 11.5078125 C-14.76363938 9.21892766 -14.28231013 6.99779039 -13 3 C-8.89322379 -0.8501027 -5.39662551 -1.51105514 0 0 Z " fill="#000000" transform="translate(374,77)"/>
<path d="M0 0 C2.9640585 1.80767693 5.42197673 3.84395345 7 7 C7.85042812 12.95299683 6.18691465 15.98908746 2.8125 20.63671875 C2.214375 21.41660156 1.61625 22.19648438 1 23 C0.443125 23.74894531 -0.11375 24.49789063 -0.6875 25.26953125 C-8.88992735 35.92915128 -18.35227393 46.72261577 -29 55 C-29.48952148 55.38542969 -29.97904297 55.77085937 -30.48339844 56.16796875 C-49.64362185 71.13654211 -70.76374147 81.97269886 -94 89 C-95.62808594 89.49886719 -95.62808594 89.49886719 -97.2890625 90.0078125 C-103.25007662 91.68293292 -108.96595813 93.04111353 -115 91 C-117.79659888 88.81728868 -118.76939596 87.33993084 -119.37109375 83.84375 C-119.58054619 80.03552377 -119.44444046 77.81419534 -117.58203125 74.40234375 C-113.8752419 70.95351554 -110.02845524 70.24037719 -105.1875 69.0625 C-103.27583564 68.55381117 -101.36567197 68.03945005 -99.45703125 67.51953125 C-98.52197754 67.26510254 -97.58692383 67.01067383 -96.62353516 66.74853516 C-65.51056562 57.87152375 -35.38148615 36.42490769 -16.6875 10.0625 C-8.45924162 -1.51057886 -8.45924162 -1.51057886 0 0 Z " fill="#000000" transform="translate(377,363)"/>
<path d="M0 0 C3.125 1.875 3.125 1.875 5 5 C5.68455021 8.47979689 5.708039 11.52261493 5 15 C2.63095184 18.41421647 1.02503506 19.64346607 -2.875 21 C-7.69382378 21 -11.30797239 19.47370146 -14.9375 16.3125 C-16.51074793 12.88837216 -16.67423786 9.65393422 -16 6 C-11.84081348 -0.51605887 -7.34347174 -0.9683699 0 0 Z " fill="#000000" transform="translate(239,438)"/>
<path d="M0 0 C3.67080764 2.52368025 4.75864984 4.17035883 6 8.4375 C6 12.61810309 5.40415469 14.58765141 3 18 C-0.39331233 20.39074278 -2.40827516 20.98961886 -6.5625 21.0625 C-11.07397557 19.66804391 -12.55228556 18.00535091 -15 14 C-15.55724601 10.0296222 -15.38142821 7.81734617 -13.6875 4.1875 C-9.93613742 -0.67537742 -5.72407484 -0.96405471 0 0 Z " fill="#000000" transform="translate(395,223)"/>
</svg>
